<svg width="110" height="110" viewBox="0 0 110 110" fill="none" xmlns="http://www.w3.org/2000/svg">
<path d="M48.5332 107.332L48.6211 105.201" stroke="#ADADAD" stroke-width="0.9" stroke-linecap="round"/>
<path d="M61.4213 107.332L61.3334 105.201" stroke="#ADADAD" stroke-width="0.9" stroke-linecap="round"/>
<path d="M42.1333 106.203L42.663 104.137" stroke="#ADADAD" stroke-width="0.9" stroke-linecap="round"/>
<path d="M68.2627 106.203L67.733 104.137" stroke="#ADADAD" stroke-width="0.9" stroke-linecap="round"/>
<path d="M34.6665 103.969L35.4847 101.999" stroke="#ADADAD" stroke-width="0.9" stroke-linecap="round"/>
<path d="M74.9512 103.969L74.133 101.999" stroke="#ADADAD" stroke-width="0.9" stroke-linecap="round"/>
<path d="M107.198 60.1523L105.066 60.0645" stroke="#ADADAD" stroke-width="0.9" stroke-linecap="round"/>
<path d="M107.198 47.6016L105.066 47.6894" stroke="#ADADAD" stroke-width="0.9" stroke-linecap="round"/>
<path d="M106.066 67.332L104 66.8024" stroke="#ADADAD" stroke-width="0.9" stroke-linecap="round"/>
<path d="M105 40.1328L102.933 40.6625" stroke="#ADADAD" stroke-width="0.9" stroke-linecap="round"/>
<path d="M103.837 74.0195L101.867 73.2013" stroke="#ADADAD" stroke-width="0.9" stroke-linecap="round"/>
<path d="M102.77 33.7344L100.8 34.5526" stroke="#ADADAD" stroke-width="0.9" stroke-linecap="round"/>
<path d="M2.6665 60.4883L4.79803 60.4004" stroke="#ADADAD" stroke-width="0.9" stroke-linecap="round"/>
<path d="M12.2665 86.1484L14.021 84.9347" stroke="#ADADAD" stroke-width="0.9" stroke-linecap="round"/>
<path d="M86.957 96.3672L85.8665 94.5336" stroke="#ADADAD" stroke-width="0.9" stroke-linecap="round"/>
<path d="M24 12.4023L25.1892 14.1735" stroke="#ADADAD" stroke-width="0.9" stroke-linecap="round"/>
<path d="M2.66656 47.6016L4.79809 47.6894" stroke="#ADADAD" stroke-width="0.9" stroke-linecap="round"/>
<path d="M3.7334 67.332L5.79993 66.8024" stroke="#ADADAD" stroke-width="0.9" stroke-linecap="round"/>
<path d="M16.5331 90.7539L17.9965 89.2016" stroke="#ADADAD" stroke-width="0.9" stroke-linecap="round"/>
<path d="M92.6479 91.8359L91.1996 90.2696" stroke="#ADADAD" stroke-width="0.9" stroke-linecap="round"/>
<path d="M18.6666 16.668L20.1984 18.1527" stroke="#ADADAD" stroke-width="0.9" stroke-linecap="round"/>
<path d="M4.7998 40.1328L6.86634 40.6625" stroke="#ADADAD" stroke-width="0.9" stroke-linecap="round"/>
<path d="M5.86652 74.0195L7.8367 73.2013" stroke="#ADADAD" stroke-width="0.9" stroke-linecap="round"/>
<path d="M21.8667 96.2812L23.0944 94.5366" stroke="#ADADAD" stroke-width="0.9" stroke-linecap="round"/>
<path d="M97.123 86.2812L95.4667 84.9368" stroke="#ADADAD" stroke-width="0.9" stroke-linecap="round"/>
<path d="M14.3999 22L16.1274 23.2518" stroke="#ADADAD" stroke-width="0.9" stroke-linecap="round"/>
<path d="M6.93317 33.7344L8.90335 34.5526" stroke="#ADADAD" stroke-width="0.9" stroke-linecap="round"/>
<path d="M48.5331 2.80078L48.6209 4.93225" stroke="#ADADAD" stroke-width="0.9" stroke-linecap="round"/>
<path d="M61.4211 2.80078L61.3332 4.93225" stroke="#939395" stroke-width="0.9" stroke-linecap="round"/>
<path d="M42.1333 3.86719L42.663 5.93372" stroke="#ADADAD" stroke-width="0.9" stroke-linecap="round"/>
<path d="M68.2627 3.86719L67.733 5.93372" stroke="#939395" stroke-width="0.9" stroke-linecap="round"/>
<path d="M35.7334 6L36.5516 7.97019" stroke="#ADADAD" stroke-width="0.9" stroke-linecap="round"/>
<path d="M74.9512 6L74.133 7.97019" stroke="#939395" stroke-width="0.9" stroke-linecap="round"/>
<path d="M87.2456 13.4688L85.8663 15.0962" stroke="#ADADAD" stroke-width="0.9" stroke-linecap="round"/>
<path d="M96.0117 22L94.3996 23.3972" stroke="#ADADAD" stroke-width="0.9" stroke-linecap="round"/>
<path d="M91.6118 17.7344L90.133 19.272" stroke="#ADADAD" stroke-width="0.9" stroke-linecap="round"/>
<path d="M82.6665 102.496L80.5332 98.8011" stroke="#6F6F6F" stroke-width="0.9" stroke-linecap="round"/>
<path d="M102.362 81.7344L98.6665 79.601" stroke="#6F6F6F" stroke-width="0.9" stroke-linecap="round"/>
<path d="M75.706 16.8617C75.706 16.3953 75.8653 16.0145 76.1841 15.7191C76.5028 15.4215 76.9118 15.2727 77.411 15.2727C77.8938 15.2727 78.2935 15.4098 78.6099 15.684C78.9263 15.9582 79.0845 16.3039 79.0845 16.7211C79.0845 16.9906 79.0048 17.2578 78.8454 17.5227C78.6884 17.7852 78.3978 18.1309 77.9735 18.5598L76.845 19.7023V19.7621H79.1653V20.4688H75.7481V19.8992L77.4638 18.1133C77.8013 17.7617 78.0263 17.4969 78.1388 17.3188C78.2513 17.1383 78.3075 16.9543 78.3075 16.7668C78.3075 16.5348 78.2196 16.3414 78.0438 16.1867C77.8681 16.032 77.6489 15.9547 77.3864 15.9547C77.1075 15.9547 76.8813 16.0379 76.7079 16.2043C76.5368 16.3707 76.4513 16.5898 76.4513 16.8617V16.8723H75.706V16.8617Z" fill="#939395"/>
<path d="M93.881 77.782C93.5271 78.0563 93.0677 78.1934 92.5028 78.1934C91.938 78.1934 91.4786 78.0563 91.1247 77.782C90.7731 77.5078 90.5974 77.1516 90.5974 76.7133C90.5974 76.3898 90.6946 76.1098 90.8892 75.873C91.086 75.6363 91.3474 75.4852 91.6731 75.4195V75.3598C91.4083 75.2918 91.1962 75.157 91.0368 74.9555C90.8798 74.7516 90.8013 74.5137 90.8013 74.2418C90.8013 73.841 90.9606 73.5129 91.2794 73.2574C91.5981 73.002 92.006 72.8742 92.5028 72.8742C92.9997 72.8742 93.4075 73.002 93.7263 73.2574C94.045 73.5129 94.2044 73.841 94.2044 74.2418C94.2044 74.516 94.1259 74.7539 93.9688 74.9555C93.8118 75.157 93.5997 75.2918 93.3325 75.3598V75.4195C93.6583 75.4805 93.9196 75.6293 94.1165 75.866C94.3134 76.1004 94.4118 76.3816 94.4118 76.7098C94.4118 77.148 94.2349 77.5055 93.881 77.782ZM91.7083 77.2934C91.9122 77.4574 92.1771 77.5395 92.5028 77.5395C92.8286 77.5395 93.0935 77.4574 93.2974 77.2934C93.5013 77.127 93.6032 76.9113 93.6032 76.6465C93.6032 76.3816 93.5013 76.166 93.2974 75.9996C93.0935 75.8332 92.8286 75.75 92.5028 75.75C92.1771 75.75 91.9122 75.8332 91.7083 75.9996C91.5044 76.166 91.4024 76.3816 91.4024 76.6465C91.4024 76.9113 91.5044 77.127 91.7083 77.2934ZM91.8313 74.8887C92.0024 75.034 92.2263 75.1066 92.5028 75.1066C92.7794 75.1066 93.0032 75.034 93.1743 74.8887C93.3454 74.7434 93.431 74.5535 93.431 74.3191C93.431 74.0824 93.3454 73.8902 93.1743 73.7426C93.0032 73.5949 92.7794 73.5211 92.5028 73.5211C92.2263 73.5211 92.0024 73.5949 91.8313 73.7426C91.6626 73.8902 91.5782 74.0824 91.5782 74.3191C91.5782 74.5535 91.6626 74.7434 91.8313 74.8887Z" fill="#939395"/>
<path d="M74.8312 94.0703V89.8445H74.7715L73.4988 90.7445V89.9395L74.8348 88.9973H75.6187V94.0703H74.8312ZM78.8883 94.1934C78.2953 94.1934 77.8336 93.9602 77.5031 93.4938C77.175 93.0273 77.0109 92.3723 77.0109 91.5285C77.0109 90.6918 77.1762 90.0402 77.5066 89.5738C77.8371 89.1074 78.2977 88.8742 78.8883 88.8742C79.4742 88.8742 79.9324 89.1086 80.2629 89.5773C80.5934 90.0438 80.7586 90.6965 80.7586 91.5355C80.7586 92.377 80.5945 93.0309 80.2664 93.4973C79.9383 93.9613 79.4789 94.1934 78.8883 94.1934ZM78.0867 92.9945C78.2742 93.3344 78.5414 93.5043 78.8883 93.5043C79.2352 93.5043 79.5012 93.3355 79.6863 92.998C79.8715 92.6582 79.9641 92.1684 79.9641 91.5285C79.9641 90.8957 79.8703 90.4105 79.6828 90.073C79.4953 89.7332 79.2305 89.5633 78.8883 89.5633C78.5461 89.5633 78.2801 89.7332 78.0902 90.073C77.9004 90.4129 77.8055 90.898 77.8055 91.5285C77.8055 92.166 77.8992 92.6547 78.0867 92.9945Z" fill="#939395"/>
<path d="M54.9331 0.667969L54.9331 4.93464" stroke="white" stroke-width="0.9" stroke-linecap="round"/>
<path d="M0.533203 54L4.79987 54" stroke="white" stroke-width="0.9" stroke-linecap="round"/>
<path d="M54.9331 109.469L54.9331 105.202" stroke="white" stroke-width="0.9" stroke-linecap="round"/>
<path d="M28.2666 7.07031L30.3999 10.7654" stroke="white" stroke-width="0.9" stroke-linecap="round"/>
<path d="M8 26.2656L11.695 28.399" stroke="white" stroke-width="0.9" stroke-linecap="round"/>
<path d="M82.6665 8.13281L80.5332 11.8279" stroke="white" stroke-width="0.9" stroke-linecap="round"/>
<path d="M101.295 26.2656L97.5999 28.399" stroke="white" stroke-width="0.9" stroke-linecap="round"/>
<path d="M27.1999 102.496L29.3332 98.8011" stroke="white" stroke-width="0.9" stroke-linecap="round"/>
<path d="M6.93311 80.668L10.6281 78.5346" stroke="white" stroke-width="0.9" stroke-linecap="round"/>
<path d="M109.333 54L105.066 54" stroke="white" stroke-width="0.9" stroke-linecap="round"/>
<path d="M54.6602 15.2241C53.9189 15.2241 53.3418 14.9326 52.9287 14.3496C52.5186 13.7666 52.3135 12.9478 52.3135 11.8931C52.3135 10.8472 52.52 10.0327 52.9331 9.44971C53.3462 8.8667 53.9219 8.5752 54.6602 8.5752C55.3926 8.5752 55.9653 8.86817 56.3784 9.4541C56.7915 10.0371 56.998 10.853 56.998 11.9019C56.998 12.9536 56.793 13.771 56.3828 14.354C55.9727 14.9341 55.3984 15.2241 54.6602 15.2241ZM53.6582 13.7256C53.8926 14.1504 54.2266 14.3628 54.6602 14.3628C55.0937 14.3628 55.4263 14.1519 55.6577 13.73C55.8892 13.3052 56.0049 12.6929 56.0049 11.8931C56.0049 11.1021 55.8877 10.4956 55.6533 10.0737C55.4189 9.64893 55.0879 9.43652 54.6602 9.43652C54.2324 9.43652 53.8999 9.64893 53.6626 10.0737C53.4253 10.4985 53.3066 11.105 53.3066 11.8931C53.3066 12.6899 53.4238 13.3008 53.6582 13.7256Z" fill="white"/>
<path d="M9.13916 57.7344V52.4521H9.06445L7.47363 53.5771V52.5708L9.14355 51.3931H10.1235V57.7344H9.13916ZM15.9683 57.374C15.5259 57.7168 14.9517 57.8882 14.2456 57.8882C13.5395 57.8882 12.9653 57.7168 12.5229 57.374C12.0835 57.0313 11.8638 56.5859 11.8638 56.0381C11.8638 55.6338 11.9854 55.2837 12.2285 54.9878C12.4746 54.6919 12.8013 54.5029 13.2085 54.4209V54.3462C12.8774 54.2612 12.6123 54.0928 12.4131 53.8408C12.2168 53.5859 12.1187 53.2886 12.1187 52.9487C12.1187 52.4478 12.3179 52.0376 12.7163 51.7183C13.1147 51.3989 13.6245 51.2393 14.2456 51.2393C14.8667 51.2393 15.3765 51.3989 15.7749 51.7183C16.1733 52.0376 16.3726 52.4478 16.3726 52.9487C16.3726 53.2915 16.2744 53.5889 16.0781 53.8408C15.8818 54.0928 15.6167 54.2612 15.2827 54.3462V54.4209C15.6899 54.4971 16.0166 54.6831 16.2627 54.979C16.5088 55.272 16.6318 55.6235 16.6318 56.0337C16.6318 56.5815 16.4106 57.0283 15.9683 57.374ZM13.2524 56.7632C13.5073 56.9683 13.8384 57.0708 14.2456 57.0708C14.6528 57.0708 14.9839 56.9683 15.2388 56.7632C15.4937 56.5552 15.6211 56.2856 15.6211 55.9546C15.6211 55.6235 15.4937 55.354 15.2388 55.146C14.9839 54.938 14.6528 54.834 14.2456 54.834C13.8384 54.834 13.5073 54.938 13.2524 55.146C12.9976 55.354 12.8701 55.6235 12.8701 55.9546C12.8701 56.2856 12.9976 56.5552 13.2524 56.7632ZM13.4062 53.7573C13.6201 53.939 13.8999 54.0298 14.2456 54.0298C14.5913 54.0298 14.8711 53.939 15.085 53.7573C15.2988 53.5757 15.4058 53.3384 15.4058 53.0454C15.4058 52.7495 15.2988 52.5093 15.085 52.3247C14.8711 52.1401 14.5913 52.0479 14.2456 52.0479C13.8999 52.0479 13.6201 52.1401 13.4062 52.3247C13.1953 52.5093 13.0898 52.7495 13.0898 53.0454C13.0898 53.3384 13.1953 53.5757 13.4062 53.7573Z" fill="white"/>
<path d="M50.7393 100.402V95.1201H50.6646L49.0737 96.2451V95.2388L50.7437 94.061H51.7236V100.402H50.7393ZM53.5166 95.8936C53.5166 95.3105 53.7158 94.8345 54.1143 94.4653C54.5127 94.0933 55.0239 93.9072 55.6479 93.9072C56.2515 93.9072 56.751 94.0786 57.1465 94.4214C57.542 94.7642 57.7397 95.1963 57.7397 95.7178C57.7397 96.0547 57.6401 96.3887 57.4409 96.7197C57.2446 97.0479 56.8813 97.48 56.3511 98.0161L54.9404 99.4443V99.519H57.8408V100.402H53.5693V99.6904L55.7139 97.458C56.1357 97.0186 56.417 96.6875 56.5576 96.4648C56.6982 96.2393 56.7686 96.0093 56.7686 95.7749C56.7686 95.4849 56.6587 95.2432 56.439 95.0498C56.2192 94.8564 55.9453 94.7598 55.6172 94.7598C55.2686 94.7598 54.9858 94.8638 54.769 95.0718C54.5552 95.2798 54.4482 95.5537 54.4482 95.8936V95.9067H53.5166V95.8936Z" fill="white"/>
<path d="M98.4946 57.8882C98.0259 57.8882 97.6128 57.7754 97.2554 57.5498C96.9009 57.3242 96.6196 56.999 96.4116 56.5742C96.1538 56.0674 96.0249 55.4243 96.0249 54.645C96.0249 53.5698 96.2446 52.7334 96.6841 52.1357C97.1265 51.5381 97.7446 51.2393 98.5386 51.2393C99.0981 51.2393 99.5742 51.3945 99.9668 51.7051C100.359 52.0127 100.604 52.4258 100.701 52.9443H99.7119C99.6328 52.6865 99.4878 52.4829 99.2769 52.3335C99.0659 52.1841 98.8169 52.1094 98.5298 52.1094C98.0435 52.1094 97.6641 52.3203 97.3916 52.7422C97.1221 53.1611 96.9814 53.7529 96.9697 54.5176H97.0444C97.1968 54.2129 97.418 53.9771 97.708 53.8101C98.001 53.6431 98.335 53.5596 98.71 53.5596C99.3135 53.5596 99.8115 53.7588 100.204 54.1572C100.597 54.5557 100.793 55.061 100.793 55.6733C100.793 56.3208 100.578 56.8525 100.147 57.2686C99.7163 57.6816 99.1655 57.8882 98.4946 57.8882ZM97.5366 56.6401C97.7915 56.895 98.1079 57.0225 98.4858 57.0225C98.8638 57.0225 99.1802 56.8965 99.4351 56.6445C99.6899 56.3926 99.8174 56.0791 99.8174 55.7041C99.8174 55.3203 99.6929 55.0054 99.4438 54.7593C99.1978 54.5132 98.8799 54.3901 98.4902 54.3901C98.1035 54.3901 97.7842 54.5132 97.5322 54.7593C97.2803 55.0024 97.1543 55.3115 97.1543 55.6865C97.1543 56.0645 97.2817 56.3823 97.5366 56.6401Z" fill="white"/>
<path d="M93.0161 33.2656V32.2848H90.5411V31.5535C90.9349 30.834 91.6392 29.7137 92.654 28.1926H93.7755V31.5816H94.4751V32.2848H93.7755V33.2656H93.0161ZM91.297 31.55V31.5992H93.0267V28.8852H92.981C92.3856 29.7477 91.8243 30.6359 91.297 31.55Z" fill="#939395"/>
<path d="M28.9646 94.0703V89.8445H28.9048L27.6321 90.7445V89.9395L28.9681 88.9973H29.7521V94.0703H28.9646ZM33.563 94.0703V93.0895H31.088V92.3582C31.4817 91.6387 32.186 90.5184 33.2009 88.9973H34.3224V92.3863H35.022V93.0895H34.3224V94.0703H33.563ZM31.8438 92.3547V92.4039H33.5735V89.6898H33.5278C32.9325 90.5523 32.3712 91.4406 31.8438 92.3547Z" fill="#939395"/>
<path d="M15.0979 78.0703V73.8445H15.0381L13.7654 74.7445V73.9395L15.1014 72.9973H15.8854V78.0703H15.0979ZM19.2357 78.1934C18.8607 78.1934 18.5303 78.1031 18.2443 77.9227C17.9607 77.7422 17.7357 77.482 17.5693 77.1422C17.3631 76.7367 17.26 76.2223 17.26 75.5988C17.26 74.7387 17.4357 74.0695 17.7873 73.5914C18.1412 73.1133 18.6357 72.8742 19.2709 72.8742C19.7186 72.8742 20.0994 72.9984 20.4135 73.2469C20.7275 73.493 20.9232 73.8234 21.0006 74.2383H20.2096C20.1463 74.032 20.0303 73.8691 19.8615 73.7496C19.6928 73.6301 19.4936 73.5703 19.2639 73.5703C18.8748 73.5703 18.5713 73.7391 18.3533 74.0766C18.1377 74.4117 18.0252 74.8852 18.0158 75.4969H18.0756C18.1975 75.2531 18.3744 75.0645 18.6064 74.9309C18.8408 74.7973 19.108 74.7305 19.408 74.7305C19.8908 74.7305 20.2893 74.8898 20.6033 75.2086C20.9174 75.5273 21.0744 75.9316 21.0744 76.4215C21.0744 76.9395 20.9021 77.3648 20.5576 77.6977C20.2131 78.0281 19.7725 78.1934 19.2357 78.1934ZM18.4693 77.1949C18.6732 77.3988 18.9264 77.5008 19.2287 77.5008C19.5311 77.5008 19.7842 77.4 19.9881 77.1984C20.192 76.9969 20.2939 76.7461 20.2939 76.4461C20.2939 76.1391 20.1943 75.8871 19.9951 75.6902C19.7982 75.4934 19.5439 75.3949 19.2322 75.3949C18.9229 75.3949 18.6674 75.4934 18.4658 75.6902C18.2643 75.8848 18.1635 76.132 18.1635 76.432C18.1635 76.7344 18.2654 76.9887 18.4693 77.1949Z" fill="#939395"/>
<path d="M13.8393 29.6586C13.8393 29.1922 13.9986 28.8113 14.3174 28.516C14.6361 28.2184 15.0451 28.0695 15.5443 28.0695C16.0271 28.0695 16.4268 28.2066 16.7432 28.4809C17.0596 28.7551 17.2178 29.1008 17.2178 29.518C17.2178 29.7875 17.1381 30.0547 16.9787 30.3195C16.8217 30.582 16.5311 30.9277 16.1068 31.3566L14.9783 32.4992V32.559H17.2986V33.2656H13.8814V32.6961L15.5971 30.9102C15.9346 30.5586 16.1596 30.2938 16.2721 30.1156C16.3846 29.9352 16.4408 29.7512 16.4408 29.5637C16.4408 29.3316 16.3529 29.1383 16.1771 28.9836C16.0014 28.8289 15.7822 28.7516 15.5197 28.7516C15.2408 28.7516 15.0146 28.8348 14.8412 29.0012C14.6701 29.1676 14.5846 29.3867 14.5846 29.6586V29.6691H13.8393V29.6586ZM20.1252 33.3887C19.5322 33.3887 19.0705 33.1555 18.74 32.6891C18.4119 32.2227 18.2479 31.5676 18.2479 30.7238C18.2479 29.8871 18.4131 29.2355 18.7436 28.7691C19.074 28.3027 19.5346 28.0695 20.1252 28.0695C20.7111 28.0695 21.1693 28.3039 21.4998 28.7727C21.8303 29.2391 21.9955 29.8918 21.9955 30.7309C21.9955 31.5723 21.8314 32.2262 21.5033 32.6926C21.1752 33.1566 20.7158 33.3887 20.1252 33.3887ZM19.3236 32.1898C19.5111 32.5297 19.7783 32.6996 20.1252 32.6996C20.4721 32.6996 20.7381 32.5309 20.9232 32.1934C21.1084 31.8535 21.201 31.3637 21.201 30.7238C21.201 30.091 21.1072 29.6059 20.9197 29.2684C20.7322 28.9285 20.4674 28.7586 20.1252 28.7586C19.783 28.7586 19.517 28.9285 19.3271 29.2684C19.1373 29.6082 19.0424 30.0934 19.0424 30.7238C19.0424 31.3613 19.1361 31.85 19.3236 32.1898Z" fill="#939395"/>
<path d="M28.7729 16.8617C28.7729 16.3953 28.9322 16.0145 29.251 15.7191C29.5697 15.4215 29.9787 15.2727 30.4779 15.2727C30.9607 15.2727 31.3604 15.4098 31.6768 15.684C31.9932 15.9582 32.1514 16.3039 32.1514 16.7211C32.1514 16.9906 32.0717 17.2578 31.9123 17.5227C31.7553 17.7852 31.4646 18.1309 31.0404 18.5598L29.9119 19.7023V19.7621H32.2322V20.4688H28.815V19.8992L30.5307 18.1133C30.8682 17.7617 31.0932 17.4969 31.2057 17.3188C31.3182 17.1383 31.3744 16.9543 31.3744 16.7668C31.3744 16.5348 31.2865 16.3414 31.1107 16.1867C30.935 16.032 30.7158 15.9547 30.4533 15.9547C30.1744 15.9547 29.9482 16.0379 29.7748 16.2043C29.6037 16.3707 29.5182 16.5898 29.5182 16.8617V16.8723H28.7729V16.8617ZM33.2236 16.8617C33.2236 16.3953 33.383 16.0145 33.7018 15.7191C34.0205 15.4215 34.4295 15.2727 34.9287 15.2727C35.4115 15.2727 35.8111 15.4098 36.1275 15.684C36.4439 15.9582 36.6021 16.3039 36.6021 16.7211C36.6021 16.9906 36.5225 17.2578 36.3631 17.5227C36.2061 17.7852 35.9154 18.1309 35.4912 18.5598L34.3627 19.7023V19.7621H36.683V20.4688H33.2658V19.8992L34.9814 18.1133C35.3189 17.7617 35.5439 17.4969 35.6564 17.3188C35.7689 17.1383 35.8252 16.9543 35.8252 16.7668C35.8252 16.5348 35.7373 16.3414 35.5615 16.1867C35.3857 16.032 35.1666 15.9547 34.9041 15.9547C34.6252 15.9547 34.399 16.0379 34.2256 16.2043C34.0545 16.3707 33.9689 16.5898 33.9689 16.8617V16.8723H33.2236V16.8617Z" fill="#939395"/>
<path d="M48.5332 107.332L48.6211 105.201" stroke="#ADADAD" stroke-width="0.9" stroke-linecap="round"/>
<path d="M61.4213 107.332L61.3334 105.201" stroke="#ADADAD" stroke-width="0.9" stroke-linecap="round"/>
<path d="M42.1333 106.203L42.663 104.137" stroke="#ADADAD" stroke-width="0.9" stroke-linecap="round"/>
<path d="M68.2627 106.203L67.733 104.137" stroke="#ADADAD" stroke-width="0.9" stroke-linecap="round"/>
<path d="M34.6665 103.969L35.4847 101.999" stroke="#ADADAD" stroke-width="0.9" stroke-linecap="round"/>
<path d="M74.9512 103.969L74.133 101.999" stroke="#ADADAD" stroke-width="0.9" stroke-linecap="round"/>
<path d="M107.198 60.1523L105.066 60.0645" stroke="#ADADAD" stroke-width="0.9" stroke-linecap="round"/>
<path d="M107.198 47.6016L105.066 47.6894" stroke="#ADADAD" stroke-width="0.9" stroke-linecap="round"/>
<path d="M106.066 67.332L104 66.8024" stroke="#ADADAD" stroke-width="0.9" stroke-linecap="round"/>
<path d="M105 40.1328L102.933 40.6625" stroke="#ADADAD" stroke-width="0.9" stroke-linecap="round"/>
<path d="M103.837 74.0195L101.867 73.2013" stroke="#ADADAD" stroke-width="0.9" stroke-linecap="round"/>
<path d="M102.77 33.7344L100.8 34.5526" stroke="#ADADAD" stroke-width="0.9" stroke-linecap="round"/>
<path d="M2.6665 60.4883L4.79803 60.4004" stroke="#ADADAD" stroke-width="0.9" stroke-linecap="round"/>
<path d="M12.2665 86.1484L14.021 84.9347" stroke="#ADADAD" stroke-width="0.9" stroke-linecap="round"/>
<path d="M86.957 96.3672L85.8665 94.5336" stroke="#ADADAD" stroke-width="0.9" stroke-linecap="round"/>
<path d="M24 12.4023L25.1892 14.1735" stroke="#ADADAD" stroke-width="0.9" stroke-linecap="round"/>
<path d="M2.66656 47.6016L4.79809 47.6894" stroke="#ADADAD" stroke-width="0.9" stroke-linecap="round"/>
<path d="M3.7334 67.332L5.79993 66.8024" stroke="#ADADAD" stroke-width="0.9" stroke-linecap="round"/>
<path d="M16.5331 90.7539L17.9965 89.2016" stroke="#ADADAD" stroke-width="0.9" stroke-linecap="round"/>
<path d="M92.6479 91.8359L91.1996 90.2696" stroke="#ADADAD" stroke-width="0.9" stroke-linecap="round"/>
<path d="M18.6666 16.668L20.1984 18.1527" stroke="#ADADAD" stroke-width="0.9" stroke-linecap="round"/>
<path d="M4.7998 40.1328L6.86634 40.6625" stroke="#ADADAD" stroke-width="0.9" stroke-linecap="round"/>
<path d="M5.86652 74.0195L7.8367 73.2013" stroke="#ADADAD" stroke-width="0.9" stroke-linecap="round"/>
<path d="M21.8667 96.2812L23.0944 94.5366" stroke="#ADADAD" stroke-width="0.9" stroke-linecap="round"/>
<path d="M97.123 86.2812L95.4667 84.9368" stroke="#ADADAD" stroke-width="0.9" stroke-linecap="round"/>
<path d="M14.3999 22L16.1274 23.2518" stroke="#ADADAD" stroke-width="0.9" stroke-linecap="round"/>
<path d="M6.93317 33.7344L8.90335 34.5526" stroke="#ADADAD" stroke-width="0.9" stroke-linecap="round"/>
<path d="M48.5331 2.80078L48.6209 4.93225" stroke="#ADADAD" stroke-width="0.9" stroke-linecap="round"/>
<path d="M61.4211 2.80078L61.3332 4.93225" stroke="#939395" stroke-width="0.9" stroke-linecap="round"/>
<path d="M42.1333 3.86719L42.663 5.93372" stroke="#ADADAD" stroke-width="0.9" stroke-linecap="round"/>
<path d="M68.2627 3.86719L67.733 5.93372" stroke="#939395" stroke-width="0.9" stroke-linecap="round"/>
<path d="M35.7334 6L36.5516 7.97019" stroke="#ADADAD" stroke-width="0.9" stroke-linecap="round"/>
<path d="M74.9512 6L74.133 7.97019" stroke="#939395" stroke-width="0.9" stroke-linecap="round"/>
<path d="M87.2456 13.4688L85.8663 15.0962" stroke="#ADADAD" stroke-width="0.9" stroke-linecap="round"/>
<path d="M96.0117 22L94.3996 23.3972" stroke="#ADADAD" stroke-width="0.9" stroke-linecap="round"/>
<path d="M91.6118 17.7344L90.133 19.272" stroke="#ADADAD" stroke-width="0.9" stroke-linecap="round"/>
<path d="M82.6665 102.496L80.5332 98.8011" stroke="#6F6F6F" stroke-width="0.9" stroke-linecap="round"/>
<path d="M102.362 81.7344L98.6665 79.601" stroke="#6F6F6F" stroke-width="0.9" stroke-linecap="round"/>
<path d="M75.706 16.8617C75.706 16.3953 75.8653 16.0145 76.1841 15.7191C76.5028 15.4215 76.9118 15.2727 77.411 15.2727C77.8938 15.2727 78.2935 15.4098 78.6099 15.684C78.9263 15.9582 79.0845 16.3039 79.0845 16.7211C79.0845 16.9906 79.0048 17.2578 78.8454 17.5227C78.6884 17.7852 78.3978 18.1309 77.9735 18.5598L76.845 19.7023V19.7621H79.1653V20.4688H75.7481V19.8992L77.4638 18.1133C77.8013 17.7617 78.0263 17.4969 78.1388 17.3188C78.2513 17.1383 78.3075 16.9543 78.3075 16.7668C78.3075 16.5348 78.2196 16.3414 78.0438 16.1867C77.8681 16.032 77.6489 15.9547 77.3864 15.9547C77.1075 15.9547 76.8813 16.0379 76.7079 16.2043C76.5368 16.3707 76.4513 16.5898 76.4513 16.8617V16.8723H75.706V16.8617Z" fill="#939395"/>
<path d="M93.881 77.782C93.5271 78.0563 93.0677 78.1934 92.5028 78.1934C91.938 78.1934 91.4786 78.0563 91.1247 77.782C90.7731 77.5078 90.5974 77.1516 90.5974 76.7133C90.5974 76.3898 90.6946 76.1098 90.8892 75.873C91.086 75.6363 91.3474 75.4852 91.6731 75.4195V75.3598C91.4083 75.2918 91.1962 75.157 91.0368 74.9555C90.8798 74.7516 90.8013 74.5137 90.8013 74.2418C90.8013 73.841 90.9606 73.5129 91.2794 73.2574C91.5981 73.002 92.006 72.8742 92.5028 72.8742C92.9997 72.8742 93.4075 73.002 93.7263 73.2574C94.045 73.5129 94.2044 73.841 94.2044 74.2418C94.2044 74.516 94.1259 74.7539 93.9688 74.9555C93.8118 75.157 93.5997 75.2918 93.3325 75.3598V75.4195C93.6583 75.4805 93.9196 75.6293 94.1165 75.866C94.3134 76.1004 94.4118 76.3816 94.4118 76.7098C94.4118 77.148 94.2349 77.5055 93.881 77.782ZM91.7083 77.2934C91.9122 77.4574 92.1771 77.5395 92.5028 77.5395C92.8286 77.5395 93.0935 77.4574 93.2974 77.2934C93.5013 77.127 93.6032 76.9113 93.6032 76.6465C93.6032 76.3816 93.5013 76.166 93.2974 75.9996C93.0935 75.8332 92.8286 75.75 92.5028 75.75C92.1771 75.75 91.9122 75.8332 91.7083 75.9996C91.5044 76.166 91.4024 76.3816 91.4024 76.6465C91.4024 76.9113 91.5044 77.127 91.7083 77.2934ZM91.8313 74.8887C92.0024 75.034 92.2263 75.1066 92.5028 75.1066C92.7794 75.1066 93.0032 75.034 93.1743 74.8887C93.3454 74.7434 93.431 74.5535 93.431 74.3191C93.431 74.0824 93.3454 73.8902 93.1743 73.7426C93.0032 73.5949 92.7794 73.5211 92.5028 73.5211C92.2263 73.5211 92.0024 73.5949 91.8313 73.7426C91.6626 73.8902 91.5782 74.0824 91.5782 74.3191C91.5782 74.5535 91.6626 74.7434 91.8313 74.8887Z" fill="#939395"/>
<path d="M74.8312 94.0703V89.8445H74.7715L73.4988 90.7445V89.9395L74.8348 88.9973H75.6187V94.0703H74.8312ZM78.8883 94.1934C78.2953 94.1934 77.8336 93.9602 77.5031 93.4938C77.175 93.0273 77.0109 92.3723 77.0109 91.5285C77.0109 90.6918 77.1762 90.0402 77.5066 89.5738C77.8371 89.1074 78.2977 88.8742 78.8883 88.8742C79.4742 88.8742 79.9324 89.1086 80.2629 89.5773C80.5934 90.0438 80.7586 90.6965 80.7586 91.5355C80.7586 92.377 80.5945 93.0309 80.2664 93.4973C79.9383 93.9613 79.4789 94.1934 78.8883 94.1934ZM78.0867 92.9945C78.2742 93.3344 78.5414 93.5043 78.8883 93.5043C79.2352 93.5043 79.5012 93.3355 79.6863 92.998C79.8715 92.6582 79.9641 92.1684 79.9641 91.5285C79.9641 90.8957 79.8703 90.4105 79.6828 90.073C79.4953 89.7332 79.2305 89.5633 78.8883 89.5633C78.5461 89.5633 78.2801 89.7332 78.0902 90.073C77.9004 90.4129 77.8055 90.898 77.8055 91.5285C77.8055 92.166 77.8992 92.6547 78.0867 92.9945Z" fill="#939395"/>
<path d="M54.9331 0.667969L54.9331 4.93464" stroke="white" stroke-width="0.9" stroke-linecap="round"/>
<path d="M0.533203 54L4.79987 54" stroke="white" stroke-width="0.9" stroke-linecap="round"/>
<path d="M54.9331 109.469L54.9331 105.202" stroke="white" stroke-width="0.9" stroke-linecap="round"/>
<path d="M28.2666 7.07031L30.3999 10.7654" stroke="white" stroke-width="0.9" stroke-linecap="round"/>
<path d="M8 26.2656L11.695 28.399" stroke="white" stroke-width="0.9" stroke-linecap="round"/>
<path d="M82.6665 8.13281L80.5332 11.8279" stroke="white" stroke-width="0.9" stroke-linecap="round"/>
<path d="M101.295 26.2656L97.5999 28.399" stroke="white" stroke-width="0.9" stroke-linecap="round"/>
<path d="M27.1999 102.496L29.3332 98.8011" stroke="white" stroke-width="0.9" stroke-linecap="round"/>
<path d="M6.93311 80.668L10.6281 78.5346" stroke="white" stroke-width="0.9" stroke-linecap="round"/>
<path d="M109.333 54L105.066 54" stroke="white" stroke-width="0.9" stroke-linecap="round"/>
<path d="M50.7393 100.402V95.1201H50.6646L49.0737 96.2451V95.2388L50.7437 94.061H51.7236V100.402H50.7393ZM53.5166 95.8936C53.5166 95.3105 53.7158 94.8345 54.1143 94.4653C54.5127 94.0933 55.0239 93.9072 55.6479 93.9072C56.2515 93.9072 56.751 94.0786 57.1465 94.4214C57.542 94.7642 57.7397 95.1963 57.7397 95.7178C57.7397 96.0547 57.6401 96.3887 57.4409 96.7197C57.2446 97.0479 56.8813 97.48 56.3511 98.0161L54.9404 99.4443V99.519H57.8408V100.402H53.5693V99.6904L55.7139 97.458C56.1357 97.0186 56.417 96.6875 56.5576 96.4648C56.6982 96.2393 56.7686 96.0093 56.7686 95.7749C56.7686 95.4849 56.6587 95.2432 56.439 95.0498C56.2192 94.8564 55.9453 94.7598 55.6172 94.7598C55.2686 94.7598 54.9858 94.8638 54.769 95.0718C54.5552 95.2798 54.4482 95.5537 54.4482 95.8936V95.9067H53.5166V95.8936Z" fill="white"/>
<path d="M93.0161 33.2656V32.2848H90.5411V31.5535C90.9349 30.834 91.6392 29.7137 92.654 28.1926H93.7755V31.5816H94.4751V32.2848H93.7755V33.2656H93.0161ZM91.297 31.55V31.5992H93.0267V28.8852H92.981C92.3856 29.7477 91.8243 30.6359 91.297 31.55Z" fill="#939395"/>
<path d="M28.9646 94.0703V89.8445H28.9048L27.6321 90.7445V89.9395L28.9681 88.9973H29.7521V94.0703H28.9646ZM33.563 94.0703V93.0895H31.088V92.3582C31.4817 91.6387 32.186 90.5184 33.2009 88.9973H34.3224V92.3863H35.022V93.0895H34.3224V94.0703H33.563ZM31.8438 92.3547V92.4039H33.5735V89.6898H33.5278C32.9325 90.5523 32.3712 91.4406 31.8438 92.3547Z" fill="#939395"/>
<path d="M98.4946 57.8882C98.0259 57.8882 97.6128 57.7754 97.2554 57.5498C96.9009 57.3242 96.6196 56.999 96.4116 56.5742C96.1538 56.0674 96.0249 55.4243 96.0249 54.645C96.0249 53.5698 96.2446 52.7334 96.6841 52.1357C97.1265 51.5381 97.7446 51.2393 98.5386 51.2393C99.0981 51.2393 99.5742 51.3945 99.9668 51.7051C100.359 52.0127 100.604 52.4258 100.701 52.9443H99.7119C99.6328 52.6865 99.4878 52.4829 99.2769 52.3335C99.0659 52.1841 98.8169 52.1094 98.5298 52.1094C98.0435 52.1094 97.6641 52.3203 97.3916 52.7422C97.1221 53.1611 96.9814 53.7529 96.9697 54.5176H97.0444C97.1968 54.2129 97.418 53.9771 97.708 53.8101C98.001 53.6431 98.335 53.5596 98.71 53.5596C99.3135 53.5596 99.8115 53.7588 100.204 54.1572C100.597 54.5557 100.793 55.061 100.793 55.6733C100.793 56.3208 100.578 56.8525 100.147 57.2686C99.7163 57.6816 99.1655 57.8882 98.4946 57.8882ZM97.5366 56.6401C97.7915 56.895 98.1079 57.0225 98.4858 57.0225C98.8638 57.0225 99.1802 56.8965 99.4351 56.6445C99.6899 56.3926 99.8174 56.0791 99.8174 55.7041C99.8174 55.3203 99.6929 55.0054 99.4438 54.7593C99.1978 54.5132 98.8799 54.3901 98.4902 54.3901C98.1035 54.3901 97.7842 54.5132 97.5322 54.7593C97.2803 55.0024 97.1543 55.3115 97.1543 55.6865C97.1543 56.0645 97.2817 56.3823 97.5366 56.6401Z" fill="white"/>
<path d="M54.6602 15.2241C53.9189 15.2241 53.3418 14.9326 52.9287 14.3496C52.5186 13.7666 52.3135 12.9478 52.3135 11.8931C52.3135 10.8472 52.52 10.0327 52.9331 9.44971C53.3462 8.8667 53.9219 8.5752 54.6602 8.5752C55.3926 8.5752 55.9653 8.86817 56.3784 9.4541C56.7915 10.0371 56.998 10.853 56.998 11.9019C56.998 12.9536 56.793 13.771 56.3828 14.354C55.9727 14.9341 55.3984 15.2241 54.6602 15.2241ZM53.6582 13.7256C53.8926 14.1504 54.2266 14.3628 54.6602 14.3628C55.0937 14.3628 55.4263 14.1519 55.6577 13.73C55.8892 13.3052 56.0049 12.6929 56.0049 11.8931C56.0049 11.1021 55.8877 10.4956 55.6533 10.0737C55.4189 9.64893 55.0879 9.43652 54.6602 9.43652C54.2324 9.43652 53.8999 9.64893 53.6626 10.0737C53.4253 10.4985 53.3066 11.105 53.3066 11.8931C53.3066 12.6899 53.4238 13.3008 53.6582 13.7256Z" fill="white"/>
<path d="M9.13916 57.7344V52.4521H9.06445L7.47363 53.5771V52.5708L9.14355 51.3931H10.1235V57.7344H9.13916ZM15.9683 57.374C15.5259 57.7168 14.9517 57.8882 14.2456 57.8882C13.5395 57.8882 12.9653 57.7168 12.5229 57.374C12.0835 57.0313 11.8638 56.5859 11.8638 56.0381C11.8638 55.6338 11.9854 55.2837 12.2285 54.9878C12.4746 54.6919 12.8013 54.5029 13.2085 54.4209V54.3462C12.8774 54.2612 12.6123 54.0928 12.4131 53.8408C12.2168 53.5859 12.1187 53.2886 12.1187 52.9487C12.1187 52.4478 12.3179 52.0376 12.7163 51.7183C13.1147 51.3989 13.6245 51.2393 14.2456 51.2393C14.8667 51.2393 15.3765 51.3989 15.7749 51.7183C16.1733 52.0376 16.3726 52.4478 16.3726 52.9487C16.3726 53.2915 16.2744 53.5889 16.0781 53.8408C15.8818 54.0928 15.6167 54.2612 15.2827 54.3462V54.4209C15.6899 54.4971 16.0166 54.6831 16.2627 54.979C16.5088 55.272 16.6318 55.6235 16.6318 56.0337C16.6318 56.5815 16.4106 57.0283 15.9683 57.374ZM13.2524 56.7632C13.5073 56.9683 13.8384 57.0708 14.2456 57.0708C14.6528 57.0708 14.9839 56.9683 15.2388 56.7632C15.4937 56.5552 15.6211 56.2856 15.6211 55.9546C15.6211 55.6235 15.4937 55.354 15.2388 55.146C14.9839 54.938 14.6528 54.834 14.2456 54.834C13.8384 54.834 13.5073 54.938 13.2524 55.146C12.9976 55.354 12.8701 55.6235 12.8701 55.9546C12.8701 56.2856 12.9976 56.5552 13.2524 56.7632ZM13.4062 53.7573C13.6201 53.939 13.8999 54.0298 14.2456 54.0298C14.5913 54.0298 14.8711 53.939 15.085 53.7573C15.2988 53.5757 15.4058 53.3384 15.4058 53.0454C15.4058 52.7495 15.2988 52.5093 15.085 52.3247C14.8711 52.1401 14.5913 52.0479 14.2456 52.0479C13.8999 52.0479 13.6201 52.1401 13.4062 52.3247C13.1953 52.5093 13.0898 52.7495 13.0898 53.0454C13.0898 53.3384 13.1953 53.5757 13.4062 53.7573Z" fill="white"/>
<path d="M15.0979 78.0703V73.8445H15.0381L13.7654 74.7445V73.9395L15.1014 72.9973H15.8854V78.0703H15.0979ZM19.2357 78.1934C18.8607 78.1934 18.5303 78.1031 18.2443 77.9227C17.9607 77.7422 17.7357 77.482 17.5693 77.1422C17.3631 76.7367 17.26 76.2223 17.26 75.5988C17.26 74.7387 17.4357 74.0695 17.7873 73.5914C18.1412 73.1133 18.6357 72.8742 19.2709 72.8742C19.7186 72.8742 20.0994 72.9984 20.4135 73.2469C20.7275 73.493 20.9232 73.8234 21.0006 74.2383H20.2096C20.1463 74.032 20.0303 73.8691 19.8615 73.7496C19.6928 73.6301 19.4936 73.5703 19.2639 73.5703C18.8748 73.5703 18.5713 73.7391 18.3533 74.0766C18.1377 74.4117 18.0252 74.8852 18.0158 75.4969H18.0756C18.1975 75.2531 18.3744 75.0645 18.6064 74.9309C18.8408 74.7973 19.108 74.7305 19.408 74.7305C19.8908 74.7305 20.2893 74.8898 20.6033 75.2086C20.9174 75.5273 21.0744 75.9316 21.0744 76.4215C21.0744 76.9395 20.9021 77.3648 20.5576 77.6977C20.2131 78.0281 19.7725 78.1934 19.2357 78.1934ZM18.4693 77.1949C18.6732 77.3988 18.9264 77.5008 19.2287 77.5008C19.5311 77.5008 19.7842 77.4 19.9881 77.1984C20.192 76.9969 20.2939 76.7461 20.2939 76.4461C20.2939 76.1391 20.1943 75.8871 19.9951 75.6902C19.7982 75.4934 19.5439 75.3949 19.2322 75.3949C18.9229 75.3949 18.6674 75.4934 18.4658 75.6902C18.2643 75.8848 18.1635 76.132 18.1635 76.432C18.1635 76.7344 18.2654 76.9887 18.4693 77.1949Z" fill="#939395"/>
<path d="M13.8393 29.6586C13.8393 29.1922 13.9986 28.8113 14.3174 28.516C14.6361 28.2184 15.0451 28.0695 15.5443 28.0695C16.0271 28.0695 16.4268 28.2066 16.7432 28.4809C17.0596 28.7551 17.2178 29.1008 17.2178 29.518C17.2178 29.7875 17.1381 30.0547 16.9787 30.3195C16.8217 30.582 16.5311 30.9277 16.1068 31.3566L14.9783 32.4992V32.559H17.2986V33.2656H13.8814V32.6961L15.5971 30.9102C15.9346 30.5586 16.1596 30.2938 16.2721 30.1156C16.3846 29.9352 16.4408 29.7512 16.4408 29.5637C16.4408 29.3316 16.3529 29.1383 16.1771 28.9836C16.0014 28.8289 15.7822 28.7516 15.5197 28.7516C15.2408 28.7516 15.0146 28.8348 14.8412 29.0012C14.6701 29.1676 14.5846 29.3867 14.5846 29.6586V29.6691H13.8393V29.6586ZM20.1252 33.3887C19.5322 33.3887 19.0705 33.1555 18.74 32.6891C18.4119 32.2227 18.2479 31.5676 18.2479 30.7238C18.2479 29.8871 18.4131 29.2355 18.7436 28.7691C19.074 28.3027 19.5346 28.0695 20.1252 28.0695C20.7111 28.0695 21.1693 28.3039 21.4998 28.7727C21.8303 29.2391 21.9955 29.8918 21.9955 30.7309C21.9955 31.5723 21.8314 32.2262 21.5033 32.6926C21.1752 33.1566 20.7158 33.3887 20.1252 33.3887ZM19.3236 32.1898C19.5111 32.5297 19.7783 32.6996 20.1252 32.6996C20.4721 32.6996 20.7381 32.5309 20.9232 32.1934C21.1084 31.8535 21.201 31.3637 21.201 30.7238C21.201 30.091 21.1072 29.6059 20.9197 29.2684C20.7322 28.9285 20.4674 28.7586 20.1252 28.7586C19.783 28.7586 19.517 28.9285 19.3271 29.2684C19.1373 29.6082 19.0424 30.0934 19.0424 30.7238C19.0424 31.3613 19.1361 31.85 19.3236 32.1898Z" fill="#939395"/>
<path d="M28.7729 16.8617C28.7729 16.3953 28.9322 16.0145 29.251 15.7191C29.5697 15.4215 29.9787 15.2727 30.4779 15.2727C30.9607 15.2727 31.3604 15.4098 31.6768 15.684C31.9932 15.9582 32.1514 16.3039 32.1514 16.7211C32.1514 16.9906 32.0717 17.2578 31.9123 17.5227C31.7553 17.7852 31.4646 18.1309 31.0404 18.5598L29.9119 19.7023V19.7621H32.2322V20.4688H28.815V19.8992L30.5307 18.1133C30.8682 17.7617 31.0932 17.4969 31.2057 17.3188C31.3182 17.1383 31.3744 16.9543 31.3744 16.7668C31.3744 16.5348 31.2865 16.3414 31.1107 16.1867C30.935 16.032 30.7158 15.9547 30.4533 15.9547C30.1744 15.9547 29.9482 16.0379 29.7748 16.2043C29.6037 16.3707 29.5182 16.5898 29.5182 16.8617V16.8723H28.7729V16.8617ZM33.2236 16.8617C33.2236 16.3953 33.383 16.0145 33.7018 15.7191C34.0205 15.4215 34.4295 15.2727 34.9287 15.2727C35.4115 15.2727 35.8111 15.4098 36.1275 15.684C36.4439 15.9582 36.6021 16.3039 36.6021 16.7211C36.6021 16.9906 36.5225 17.2578 36.3631 17.5227C36.2061 17.7852 35.9154 18.1309 35.4912 18.5598L34.3627 19.7023V19.7621H36.683V20.4688H33.2658V19.8992L34.9814 18.1133C35.3189 17.7617 35.5439 17.4969 35.6564 17.3188C35.7689 17.1383 35.8252 16.9543 35.8252 16.7668C35.8252 16.5348 35.7373 16.3414 35.5615 16.1867C35.3857 16.032 35.1666 15.9547 34.9041 15.9547C34.6252 15.9547 34.399 16.0379 34.2256 16.2043C34.0545 16.3707 33.9689 16.5898 33.9689 16.8617V16.8723H33.2236V16.8617Z" fill="#939395"/>
</svg>
